<?xml version="1.0" standalone="no"?>
<!DOCTYPE svg PUBLIC "-//W3C//DTD SVG 1.1//EN" "http://www.w3.org/Graphics/SVG/1.1/DTD/svg11.dtd" >
<svg xmlns="http://www.w3.org/2000/svg">
<metadata>Generated by IcoMoon</metadata>
<defs>
<font id="icomoon" horiz-adv-x="1024">
<font-face units-per-em="1024" ascent="960" descent="-64" />
<missing-glyph horiz-adv-x="1024" />
<glyph unicode="&#x20;" d="" horiz-adv-x="512" />
<glyph unicode="&#xe000;" d="M408.261 447.647c0 57.646 46.445 104.092 103.739 104.092s103.739-46.445 103.739-104.092c0-56.94-46.445-103.386-103.739-103.386s-103.739 46.445-103.739 103.386zM893.659 395.746c-13.198 17.241-27.998 34.59-44.201 51.901 16.205 17.309 31.003 34.659 44.201 51.901 31.025 40.527 51.921 78.731 62.113 113.554 8.199 28.009 13.377 68.815-8.507 104.145-29.584 47.763-89.956 57.789-135.392 57.789-38.203 0-81.833-6.694-128.751-19.312-4.63 15.283-9.618 29.984-14.967 43.994-18.199 47.665-39.734 85.596-64.005 112.566-27.989 31.098-60.153 47.716-93.015 47.716h-0.211c-41.557 0-73.467-26.211-92.916-47.971-24.181-27.051-45.576-65.148-63.593-112.899-5.19-13.755-10.026-28.173-14.518-43.147-46.547 12.445-89.833 19.046-127.769 19.046-45.437 0-105.81-10.031-135.392-57.794-21.882-35.33-16.705-76.147-8.507-104.157 10.191-34.823 31.090-73.052 62.113-113.577 13.192-17.231 27.981-34.575 44.176-51.878-16.195-17.299-30.984-34.64-44.176-51.871-31.023-40.527-51.921-78.731-62.113-113.554-8.197-28.009-13.377-68.815 8.507-104.145 29.584-47.763 89.956-57.789 135.392-57.789 38.218 0 81.863 6.701 128.803 19.325 4.616-15.219 9.586-29.862 14.917-43.823 18.198-47.663 39.734-85.417 64.003-112.387 27.986-31.103 60.148-47.38 93.008-47.38h0.218c41.559 0 73.467 25.881 92.918 47.639 24.181 27.051 45.576 64.818 63.592 112.57 5.165 13.693 9.981 28.043 14.458 42.946 46.567-12.47 89.876-19.090 127.829-19.090 0.005 0 0.005 0 0.010 0 45.434 0 105.802 10.126 135.382 57.886 21.882 35.33 16.705 76.231 8.507 104.242-10.19 34.823-31.088 73.025-62.113 113.552zM811.873 716.852c25.096 0 69.63-3.929 85.931-30.243 18.422-29.743-0.397-86.451-50.342-151.694-11.724-15.315-24.859-30.748-39.217-46.177-27.121 25.354-57.029 50.352-89.162 74.511-4.427 47.879-11.545 93.684-21.154 136.155 42.551 11.475 81.269 17.448 113.943 17.448zM642.982 212.945c-0.49 0.174-0.979 0.341-1.471 0.515-21.189 7.509-42.841 16.138-64.718 25.766 15.713 8.848 31.423 18.122 47.072 27.815 10.886 6.741 21.609 13.606 32.164 20.575-3.492-25.876-7.857-50.844-13.048-74.672zM593.227 316.503c-26.78-16.586-54.014-32.045-81.259-46.169-27.225 14.134-54.438 29.596-81.197 46.169-24.261 15.027-47.663 30.653-70.030 46.697-1.921 27.456-2.943 55.575-3.002 84.122-0.060 28.679 0.852 56.939 2.674 84.535 22.466 16.126 45.978 31.831 70.36 46.933 26.763 16.576 53.981 32.027 81.209 46.144 27.241-14.125 54.471-29.582 81.249-46.167 24.266-15.030 47.67-30.658 70.040-46.706 1.914-27.422 2.933-55.502 2.993-84.001 0.060-28.716-0.853-57.004-2.68-84.626-22.468-16.128-45.976-31.831-70.356-46.932zM381.801 213.317c-5.207 23.549-9.613 48.213-13.17 73.763 10.342-6.818 20.846-13.536 31.503-20.137 15.591-9.658 31.242-18.899 46.897-27.72-21.819-9.582-43.413-18.179-64.544-25.667-0.229-0.079-0.457-0.157-0.686-0.239zM300.168 409.779c-15.129 12.497-29.559 25.145-43.229 37.868 13.627 12.686 28.013 25.294 43.092 37.754-0.338-12.636-0.502-25.361-0.474-38.157 0.027-12.562 0.233-25.056 0.611-37.465zM380.965 682.258c0.509-0.179 1.014-0.353 1.523-0.534 21.159-7.498 42.782-16.106 64.629-25.707-15.683-8.833-31.363-18.091-46.982-27.765-10.891-6.746-21.621-13.615-32.182-20.587 3.482 25.846 7.836 50.788 13.012 74.593zM642.239 681.991c5.21-23.592 9.614-48.302 13.17-73.902-10.354 6.827-20.872 13.553-31.542 20.162-15.626 9.678-31.311 18.939-47 27.775 21.854 9.601 43.482 18.211 64.648 25.712 0.239 0.085 0.48 0.167 0.724 0.253zM723.836 485.478c15.119-12.492 29.542-25.133 43.202-37.85-13.622-12.68-28.001-25.282-43.073-37.737 0.341 12.666 0.504 25.421 0.477 38.248-0.025 12.519-0.229 24.971-0.606 37.339zM408.85 778.57c29.005 76.877 67.208 122.816 102.283 122.89 34.978 0 73.358-45.784 102.666-122.544 4.902-12.844 9.479-26.335 13.734-40.373-37.393-12.991-76.218-29.246-115.538-48.429-39.658 19.349-78.81 35.713-116.498 48.757 4.138 13.794 8.585 27.061 13.354 39.698zM126.196 686.609c16.299 26.314 60.834 30.243 85.931 30.243 32.463 0 70.889-5.9 113.117-17.234-9.512-42.627-16.498-88.616-20.761-136.696-31.968-24.059-61.729-48.945-88.727-74.185-14.358 15.429-27.491 30.862-39.215 46.177-49.948 65.242-68.767 121.95-50.345 151.694zM212.125 178.442c-25.096 0-69.63 3.929-85.929 30.243-18.422 29.743 0.397 86.453 50.342 151.696 11.714 15.303 24.839 30.725 39.183 46.142 27.134-25.377 57.061-50.399 89.215-74.581 4.434-47.844 11.555-93.607 21.169-136.041-42.566-11.482-81.294-17.458-113.98-17.458zM615.148 116.898c-29.005-76.877-67.208-122.716-102.194-122.716h-0.082c-34.983 0-73.365 45.665-102.673 122.423-4.881 12.782-9.435 26.206-13.673 40.167 37.338 12.974 76.101 29.202 115.359 48.351 39.667-19.369 78.83-35.755 116.53-48.822-4.113-13.687-8.532-26.853-13.267-39.402zM897.804 208.588c-16.299-26.314-60.826-30.34-85.921-30.34-0.002 0-0.005 0-0.007 0-32.475 0-70.914 5.945-113.157 17.311 9.526 42.658 16.521 88.686 20.791 136.806 31.962 24.054 61.718 48.934 88.713 74.17 14.366-15.439 27.509-30.881 39.238-46.204 49.945-65.242 68.764-121.998 50.342-151.743z" />
<glyph unicode="&#xe001;" d="M977.028 29.313h-930.491c-25.708 0-46.537-20.828-46.537-46.558 0-25.687 20.828-46.515 46.537-46.515h930.469c25.708 0 46.537 20.828 46.537 46.515-0.022 25.73-20.85 46.558-46.515 46.558zM104.685 150.295c-25.708 0-46.537-20.828-46.537-46.537s20.828-46.558 46.537-46.558h814.172c25.708 0 46.537 20.85 46.537 46.558s-20.828 46.537-46.537 46.537h-11.612v418.742h11.612c12.876 0 23.246 10.414 23.246 23.246s-10.414 23.246-23.246 23.246h-814.172c-12.854 0-23.246-10.414-23.246-23.246s10.414-23.246 23.246-23.246h11.634v-418.72h-11.634zM814.172 569.036v-418.72h-139.566v418.72h139.566zM581.532 569.036v-418.72h-139.566v418.72h139.566zM209.349 569.036h139.566v-418.72h-139.566v418.72zM46.537 657.36h930.469c0.153 0 0.327 0 0.458 0 25.73 0 46.537 20.828 46.537 46.537 0 20.436-13.159 37.756-31.438 44.031l-461.662 207.737c-12.135 5.447-26.013 5.447-38.17 0l-465.278-209.349c-20.022-9.020-31.024-30.763-26.406-52.201 4.597-21.438 23.551-36.754 45.491-36.754z" />
<glyph unicode="&#xe002;" d="M244.153 694.445l613.898 0.026v57.564l-613.898-0.049c-72.279 0-99.158 19.271-99.158 71.16 0 66.667 26.468 71.496 70.040 71.496 4.667 0 9.25-0.075 13.819-0.162 4.667-0.075 9.25-0.149 13.693-0.149h615.555v57.564h-615.555c-4.132 0-8.393 0.087-12.749 0.162-4.842 0.075-9.772 0.149-14.74 0.149-34.907 0-127.604 0-127.604-129.061 0.002-85.416 52.724-128.7 156.699-128.7zM208.101 874.062h613.996v-19.122h-611.956zM208.101 834.089h613.996v-19.122h-611.956zM208.101 791.712h613.996v-19.122h-611.956zM1024.002 285.921h-817.918c-5.478 0-11.167 0.1-16.93 0.175-6.424 0.1-12.97 0.2-19.608 0.2-46.349 0-169.546 0-169.546-171.475 0-113.512 70.064-171.030 208.227-171.030l815.775 0.049v76.49l-815.775-0.049c-96.047 0-131.739 25.621-131.739 94.565 0 88.614 35.157 94.987 93.058 94.987 6.201 0 12.312-0.1 18.363-0.2 6.188-0.098 12.263-0.198 18.175-0.198h817.916v76.486zM160.322 179.358h815.875v-19.122h-814.519zM160.322 126.224h815.875v-19.122h-814.519zM160.322 69.903h815.875v-19.12h-814.519zM835.443 337.387c5.776-0.1 11.604-0.198 17.553-0.198 41.532 0 151.906 0 151.906 153.635 0 101.71-62.769 153.262-186.538 153.262l-730.907-0.049v-68.533l730.907 0.049c85.998 0 118.020-22.943 118.020-84.729 0-79.388-31.495-85.090-83.386-85.090-5.552 0-11.077 0.049-16.457 0.175-5.578 0.075-11.030 0.175-16.31 0.175h-732.775v-68.522h732.799c4.881 0 9.962-0.1 15.188-0.175zM130.255 451.188h730.982v-19.109h-729.229zM130.255 498.78h730.982v-19.122h-729.229zM130.255 549.211h730.982v-19.122h-729.229z" />
<glyph unicode="&#xe003;" d="M145.212 637.63c-7.697 0-15.297 3.52-20.228 10.182-8.262 11.161-5.913 26.907 5.245 35.172l138.678 102.677c11.161 8.262 26.907 5.913 35.172-5.245 8.265-11.161 5.913-26.907-5.245-35.172l-138.678-102.677c-4.502-3.331-9.747-4.937-14.945-4.937zM158.911 505.668c-7.88 0-15.64 3.692-20.541 10.614-8.025 11.333-5.345 27.026 5.984 35.051l297.143 210.457c11.339 8.022 27.026 5.345 35.054-5.987 8.025-11.333 5.345-27.026-5.984-35.051l-297.143-210.457c-4.414-3.127-9.49-4.627-14.513-4.627zM981.906 929.741h-939.811c-23.153 0-42.094-18.944-42.094-42.097v-724.183c0-23.153 18.941-42.097 42.094-42.097h343.1c0 0 12.285 0.737 12.285-11.279 0-14.004 0-46.638 0-63.047 0-5.967-0.45-9.786-7.475-9.786-22.349 0-89.392 0-89.392 0-19.604 0-35.498-15.894-35.498-35.498 0-19.607 15.894-35.498 35.498-35.498h422.778c19.604 0 35.498 15.891 35.498 35.498 0 19.604-15.894 35.498-35.498 35.498 0 0-67.342 0-90.2 0-5.177 0-6.668 3.147-6.668 6.765 0 14.746 0 52.711 0 68.099 0 9.431 8.821 9.247 8.821 9.247h346.558c23.153 0 42.097 18.944 42.097 42.097v724.183c0.003 23.153-18.941 42.097-42.094 42.097zM555.528 109.897c0-14.915 0-50.889 0-65.017 0-3.39-1.716-7.384-6.892-7.384-18.627 0-53.326 0-73.4 0-6.472 0-6.759 3.408-6.759 8.8 0 15.953 0 49.277 0 63.047 0 9.244 11.013 9.576 11.013 9.576h66.745c-0.003 0 9.294 0.592 9.294-9.022zM512.001 167.913c-22.878 0-41.423 18.548-41.423 41.423 0 22.878 18.545 41.423 41.423 41.423 22.875 0 41.423-18.545 41.423-41.423 0-22.875-18.548-41.423-41.423-41.423zM962.039 327.762c0-23.153-18.944-42.097-42.094-42.097h-815.886c-23.153 0-42.094 18.944-42.094 42.097v490.298c0 23.153 18.941 42.097 42.094 42.097h815.886c23.15 0 42.094-18.944 42.094-42.097v-490.298z" />
<glyph unicode="&#xe004;" d="M1021.656 829.199c-9.953 37.693-48.513 60.199-86.206 50.279-37.757-9.921-60.264-48.513-50.343-86.238 4.688-17.691 15.668-31.978 29.955-41.225-3.435-51.82-18.879-114.941-64.502-170.132-128.586 146.694-182.878 206.572-208.017 230.813 13.42 8.508 24.754 13.806 32.235 16.792 16.984-14.127 40.261-20.195 63.25-14.127 37.661 9.921 60.199 48.545 50.246 86.206-9.985 37.725-48.609 60.264-86.27 50.375-28.286-7.449-47.999-31.015-51.948-58.209-53.168-22.571-234.665-123.032-207.6-436.068-198.77-5.779-303.309-58.401-350.858-92.755-12.233 3.853-25.621 4.463-38.945 0.963-37.693-10.017-60.199-48.545-50.311-86.302 9.953-37.725 48.545-60.264 86.238-50.246 31.079 8.155 51.82 35.863 52.558 66.428l207.792-218.131c-4.88-3.018-9.664-5.811-14.319-8.251-16.567 12.072-38.207 16.856-59.589 11.334-37.693-9.953-60.232-48.577-50.311-86.302 9.953-37.725 48.545-60.264 86.27-50.279 29.409 7.706 49.476 32.941 52.237 61.58 97.218 48.288 177.709 166.889 156.711 383.189 62.383 0.289 119.885 7.32 171.544 20.901 77.248 20.323 141.461 55.095 190.102 103.671 61.355 61.355 96.383 141.717 102.355 234.087 29.923 14.384 46.522 48.352 37.725 81.646zM376.608 98.811l-216.814 227.57c13.902 7.545 31.143 15.636 52.398 23.406l203.105-202.366c-11.622-20.002-24.947-35.927-38.688-48.609zM431.22 180.329l-181.947 181.305c27.965 7.834 61.066 14.801 99.851 19.649l104.089-99.337c-3.050-40.486-10.98-73.973-21.993-101.617zM394.362 386.003c17.723 1.381 36.441 2.312 56.218 2.761 2.344-21.383 3.564-41.385 3.885-60.103l-60.103 57.342zM511.872 457.889c-4.527 47.517-3.821 89.288 0.61 125.857l101.617-119.179c-31.978-4.623-66.139-6.871-102.227-6.678zM653.493 471.598l-133.37 156.358c7.128 30.918 17.048 57.374 28.639 79.977 43.311-46.779 123.77-137.544 187.437-209.976-25.3-11.045-52.943-19.842-82.706-26.359zM768.177 513.85c-112.886 128.779-170.485 193.023-201.211 224.969 15.379 22.571 32.010 40.133 47.871 53.521 27.194-26.873 132.728-145.667 211.966-235.821-17.177-16.117-36.858-30.373-58.626-42.669z" />
<glyph unicode="&#xe005;" d="M612.669 956.87l-100.669-53.25-101.012 53.432c-19.41 10.267-41.587-7.947-35.286-28.983l54.773-182.88c26.904 8.405 54.134 12.635 81.525 12.635 27.013 0 53.87-4.122 80.413-12.298l55.509 182.252c6.416 21.058-15.793 39.385-35.253 29.092zM905.027 201.021c0 217.063-175.964 524.378-393.027 524.378s-393.027-307.315-393.027-524.378c0-217.061 175.964-265.020 393.027-265.020 217.063-0.003 393.027 47.956 393.027 265.020zM545.862 142.608v-38.563c0-12.464-10.105-22.568-22.569-22.568h-19.455c-12.465 0-22.569 10.104-22.569 22.568v35.106c-26.879 3.302-59.156 13.156-85.796 30.828-9.719 6.447-12.519 19.797-6.246 29.631l20.080 31.478c6.339 9.934 19.509 13.023 29.521 6.804 23.084-14.343 42.567-20.313 62.050-20.313 28.836 0 40.371 9.806 40.371 32.295 0 46.14-148.79 52.482-148.79 153.404 0 58.248 32.871 98.618 88.812 110.728v38.36c0 11.938 9.678 21.617 21.617 21.617h21.356c11.939 0 21.617-9.678 21.617-21.617v-37.207c28.289-4.49 51.334-16.672 71.039-33.28 9.26-7.804 10.43-21.635 2.498-30.782l-21.771-25.097c-7.273-8.388-19.749-10.067-28.833-3.69-14.787 10.381-28.846 15.571-44.848 15.571-24.797 0-36.909-6.92-36.909-29.988 0-43.83 148.79-46.138 148.79-151.096-0.001-55.943-29.414-99.772-89.966-114.189z" />
<glyph unicode="&#xe006;" d="M782.495 98.759l6.26 75.154-98.244 267.092h54.492v-43.067h26.579v112.714h-26.579v-43.101h-64.242l-63.66 173.055c6.807 15.325 10.673 32.155 10.673 49.977 0 62.873-46.796 114.082-107.309 122.326v147.092h-33.284v-147.092c-60.513-8.176-107.343-59.453-107.343-122.326 0-25.142 7.56-48.472 20.49-68.004l-57.024-154.994h-66.876v43.101h-26.613v-112.714h26.613v43.067h57.092l-98.244-267.092 6.26-75.154-36.568-162.793 82.201 144.013 59.076 55.348 165.735 424.172 165.769-424.172 59.042-55.348 82.201-144.013-36.499 162.759zM505.723 604.653c-47.309 0-85.724 38.312-85.724 85.724 0 47.275 38.415 85.621 85.724 85.621 47.343 0 85.724-38.347 85.724-85.621 0.034-47.412-38.381-85.724-85.724-85.724zM444.697 689.145c0 50.295 15.315 65.61 61.026 65.61-7.926 0 7.389-15.315 7.389-65.61 0 12.51-15.315-2.805-7.389-2.805-45.711 0-61.026 15.315-61.026 2.805z" />
<glyph unicode="&#xe007;" d="M885.818 484.854c0 219.025-162.622 400.76-373.673 430.657v6.683c0 20.856-17.983 37.806-40.583 37.806-22.632 0-40.647-16.95-40.647-37.806v-48.041c0-20.178 16.369-36.547 36.547-36.547h3.81c185.319-10.493 332.928-164.785 332.928-352.655 0-194.746-158.457-353.204-353.236-353.204-94.758 0-180.831 37.677-244.272 98.761-13.431 12.882-34.449 13.689-48.751 1.743-2.228-1.873-4.455-3.648-6.683-5.585-7.942-6.683-12.72-16.401-13.076-26.7-0.355-10.331 3.681-20.404 11.139-27.572 73.546-71.286 171.598-116.906 281.627-122.007v-31.801h-65.992c-31.608 0-57.242-25.602-57.242-57.178v-25.344h327.698v25.15c0 31.608-25.602 57.21-57.178 57.21h-65.959v35.708c210.954 29.929 373.544 211.664 373.544 430.721zM450.932 181.209c167.691 0 303.645 135.954 303.645 303.645 0 167.659-135.954 303.613-303.645 303.613-167.626 0-303.613-135.954-303.613-303.613 0-167.691 135.954-303.645 303.613-303.645zM700.854 484.854c0-19.856-2.292-39.13-6.683-57.63-2.26 3.584-18.144 26.862-21.050 34.481-2.938 7.619-40.357-44.199-43.844-47.169-3.584-2.97-2.906 64.248-2.906 73.062s-12.333 20.63-19.307 26.506c-7.103 5.908-47.783 44.522-59.567 40.066-13.043-4.94 25.667-34.158 22.794-37.128-2.97-2.97-33.448-11.171-45.845-13.495-12.494-2.389-21.438 14.722-25.538 22.374-4.133 7.619-15.82 34.739-18.112 41.81-2.325 7.103-10.525-10.202-9.363-17.822 1.162-7.684 12.333-29.896 17.563-38.161 5.295-8.233 7.619-18.209 7.619-25.925 0-7.652 11.074-12.946 22.697-16.466 11.817-3.551 0-11.203-4.036-15.917-4.133-4.714-20.986-14.141-38.613-22.955-17.531-8.814-36.224-38.904-42.585-51.269-6.457-12.365-21.082-34.739-33.351-44.748s-73.643-31.252-95.242-25.893c-21.567 5.23-25.086 81.844-23.342 96.469 1.776 14.722 11.687 38.355 10.493 51.851-1.098 13.56 4.585 35.966 7.555 41.261 3.035 5.327 16.982-0.549 23.439 0.032 6.425 0.613-6.457 16.595-9.944 16.014s-11.655 4.811-16.498 7.232c-4.585 2.325-9.783 16.724-27.895 20.824-18.177 4.133-20.501 27.023-22.858 38.226-2.325 11.235 12.301 40.486 15.271 46.362 2.938 5.908 39.711 38.032 39.711 38.032s19.597 10.073 25.183 9.75c16.336-1.001 32.221-16.627 32.221-16.627s23.375-14.367 38.387-38.355c12.559-20.049 39.001-23.665 39.001-23.665 14.69 1.259 24.214 12.527 24.924 16.627 2.647 13.463-7.619 24.763-21.857 24.053-2.97-0.161-4.1-5.908-8.749-5.908-4.681 0-3.551 5.908-5.295 11.849-1.743 5.844-2.195 12.85-5.004 19.92-2.906 7.071-5.23 15.755-11.042 22.212-5.876 6.522-14.012 1.614-21.599 3.358-7.587 1.808-19.016-4.326-27.184-3.713-8.233 0.613-12.301 7.038-11.72 12.946s20.63 13.269 30.51 14.464c9.976 1.162 18.919 2.26 21.793 6.393 2.97 4.133 17.047 6.36 21.728 5.779 4.681-0.613 12.172-3.777 16.692-9.621 6.102-8.071 6.425-20.76 20.63-18.887 5.489 0.71 20.017 8.943 8.975 15.465-6.199 3.681-14.593 9.395-8.685 20.017 0.807 1.485 2.518 2.583 4.94 3.422 131.208-7.555 235.587-116.551 235.587-249.503zM429.462 333.887c4.649 8.201 14.625 10.073 25.667 12.365 11.623 2.518 0-25.344-5.973-28.928-5.779-3.487-24.472-11.752-29.703-9.653-5.295 2.131 5.23 17.983 10.009 26.216z" />
<glyph unicode="&#xe008;" d="M983.45 731.833v64.47l-9.34 3.677c-3.157 1.269-78.952 30.689-180.066 30.689-108.307 0-201.546-33-277.471-98.12-75.893 65.121-169.197 98.12-277.504 98.12-101.115 0-176.91-29.42-180.066-30.657l-9.34-3.71v-59.718c-30.624-5.728-49.662-15.979-49.662-32.707 0-87.088 0-615.669 0-615.669h453.404c15.686-14.059 38.63-22.878 64.275-22.878s48.588 8.819 64.275 22.878h442.046c0 0 0 585.11 0 615.669-0.033 13.603-15.458 22.488-40.55 27.955zM511.658 136.765c-37.654 15.524-167.309 64.795-297.128 64.795-51.289 0-96.754-7.843-135.481-23.399v597.803c22.586 7.518 84.192 25.352 160.019 25.352 99.715 0 185.371-30.168 255.341-88.976v-356.813l17.281 19.006-0.033-237.767zM954.063 178.030c-41.591 16.728-89.301 25.124-142.25 25.124-129.753 0-253.291-49.727-290.424-66.065v237.474l17.248-19.006v356.813c69.97 58.84 155.658 88.976 255.374 88.976 75.567 0 137.369-17.867 159.987-25.352v-597.965h0.065zM137.173 697.337l6.118-23.009c153.12 40.582 290.879-34.562 292.246-35.343l11.586 20.828c-5.923 3.287-147.36 80.612-309.95 37.523zM137.173 629.97l6.118-22.976c153.12 40.615 290.879-34.562 292.246-35.278l11.586 20.731c-5.923 3.352-147.36 80.612-309.95 37.523zM137.173 566.737l6.118-23.009c153.12 40.55 290.879-34.594 292.246-35.343l11.586 20.828c-5.923 3.254-147.36 80.514-309.95 37.523zM137.173 497.288l6.118-22.976c153.12 40.615 290.879-34.562 292.246-35.343l11.586 20.796c-5.923 3.319-147.36 80.644-309.95 37.523zM137.173 433.046l6.118-23.009c153.12 40.615 290.879-34.562 292.246-35.343l11.586 20.828c-5.923 3.254-147.36 80.547-309.95 37.523zM137.173 366.949l6.118-22.944c153.12 40.582 290.879-34.594 292.246-35.343l11.586 20.763c-5.923 3.352-147.36 80.644-309.95 37.523zM137.173 300.819l6.118-23.009c153.12 40.615 290.879-34.562 292.246-35.31l11.586 20.763c-5.923 3.319-147.36 80.612-309.95 37.556zM746.659 603.577v26.035h-16.955v-26.035c-10.186 0-20.535-1.497-30.917-4.426-10.479-2.929-19.819-7.453-28.216-13.669-8.331-6.216-15.198-14.124-20.535-23.79-5.272-9.633-7.941-21.121-7.941-34.334 0-9.373 1.399-17.216 4.198-23.66 2.799-6.411 6.867-11.944 12.074-16.597 5.207-4.719 11.521-8.722 18.876-12.074 7.42-3.385 15.589-6.541 24.473-9.601 4.947-1.725 9.796-3.222 14.482-4.393 4.719-1.204 9.145-2.441 13.506-3.743v-45.952c-6.248 0.488-11.195 1.822-14.645 4.068-3.45 2.278-6.118 5.012-8.006 8.201-1.855 3.124-3.027 6.411-3.547 9.958-0.586 3.385-0.814 6.574-0.814 9.405h-69.709c0.456-10.642 2.506-21.023 6.183-30.949 3.645-9.991 9.405-18.778 17.053-26.523 7.713-7.713 17.606-13.929 29.648-18.55 12.074-4.654 26.686-6.997 43.837-6.997v-32.219h16.955v32.219c17.151 0 31.796 2.278 43.837 6.802 12.041 4.589 21.87 10.414 29.452 17.639 7.615 7.16 13.083 15.198 16.467 24.050 3.385 8.885 5.012 17.834 5.012 26.686 0 9.145-0.944 17.639-2.929 25.449-1.985 7.778-6.183 15.035-12.887 21.609-6.639 6.639-16.207 12.757-28.704 18.322-12.464 5.5-29.225 10.544-50.281 15.133v36.449c4.068-0.846 7.55-1.92 10.414-2.962 2.799-1.074 5.109-2.473 6.997-4.231 1.822-1.757 3.254-4.035 4.198-6.802 1.009-2.864 1.692-6.314 2.115-10.479h62.192c0 13.245-2.278 24.701-6.997 34.269-4.719 9.535-10.967 17.379-18.908 23.627-7.908 6.151-17.053 10.74-27.565 13.669-10.219 2.929-21.089 4.393-32.414 4.393zM729.736 519.516c-15.426 3.059-23.139 8.917-23.139 17.541 0 6.541 2.408 10.674 7.16 12.432 4.784 1.757 10.154 2.604 15.979 2.604v-32.577zM766.576 444.111c4.751-2.962 7.127-7.29 7.127-12.887 0-6.314-2.604-11.065-7.778-14.222-5.207-3.157-11.618-5.044-19.234-5.728v41.364c8.461-2.734 15.068-5.598 19.884-8.527z" />
<glyph unicode="&#xe009;" d="M1024 10.416l-101.346 63.488v-42.9h-838.643v816.787h42.997l-63.52 101.314-63.488-101.314h42.965v-857.898h879.689v-42.997zM124.406 207.319l17.563-10.635 58.479 96.402h72.595v9.237l75.684-71.033v-67.781h92.369v92.435h-20.686l67.488 245.039h3.87l61.731-180.934h-20.035v-92.402h92.369v68.529l65.439 47.876v-4.716h66.643l56.332-101.379h-8.814v-92.369h92.369v92.369h-31.256l34.443 346.418h40.428v92.369h-92.369v-92.369h31.256l-34.378-346.418h-8.196l-56.332 101.379h2.309v92.369h-92.435v-62.187l-67.618-49.47h-48.494l-61.731 180.934h20.035v92.369h-92.369v-92.369h25.499l-67.488-245.039h-46.608l-79.457 74.579v54.966h-92.369v-85.409z" />
<glyph unicode="&#xe00a;" d="M0 768h256v-64h-256zM0 960h256v-128h-256zM768 384v192l-256-192v192l-256-192v256h-256v-704h1024v640l-256-192zM448 128h-128v64h128v-64zM448 256h-128v64h128v-64zM704 128h-128v64h128v-64zM704 256h-128v64h128v-64zM960 128h-128v64h128v-64zM960 256h-128v64h128v-64z" />
<glyph unicode="&#xe00b;" d="M149.832 133.4l250.090 250.090c23.858 23.858 30.709 57.921 21.358 88.053l77.427 77.427c23.14-18.842 47.138-33.906 70.732-44.9 1.8 5.365 4.58 10.295 8.635 14.35l129.668 129.668c4.021 4.021 8.983 6.747 14.419 8.476-15.87 34.117-40.199 69.177-72.149 101.126-32.579 32.579-68.39 57.31-103.154 73.144-1.817-5.034-4.44-9.699-8.285-13.563l-129.668-129.668c-3.827-3.827-8.39-6.625-13.475-8.493 11.063-24.224 26.514-48.921 45.88-72.725l-77.427-77.427c-30.132 9.351-64.195 2.498-88.053-21.358l-250.124-250.092c-34.274-34.274-34.274-89.836 0-124.11s89.853-34.274 124.127 0zM590.411 506.043c-2.412-2.412-3.95-5.47-4.894-8.861-3.217-11.641 1.957-27.737 14.139-39.92 9.542-9.525 21.777-15.223 32.753-15.223 4.597 0 11.099 1.032 16.027 5.96l129.668 129.668c4.911 4.911 6.904 12.426 5.575 21.149-1.469 9.717-6.747 19.523-14.838 27.615-9.542 9.525-21.777 15.223-32.736 15.223-2.116 0-4.649-0.28-7.235-0.996-3.040-0.839-6.152-2.307-8.809-4.982l-129.651-129.633zM380.469 693.965c2.376 0 5.279 0.314 8.214 1.275 2.709 0.892 5.453 2.324 7.831 4.702l129.668 129.668c2.167 2.167 3.565 4.911 4.543 7.882 3.81 11.693-1.258 28.35-13.808 40.881-9.542 9.525-21.777 15.223-32.736 15.223-4.597 0-11.099-1.032-16.027-5.96l-129.685-129.668c-10.697-10.714-6.468-33.050 9.263-48.781 9.545-9.525 21.779-15.223 32.738-15.223zM645.991 127.214c21.269 2.096 44.078 2.692 67.9 2.692 10.155 0 20.553-0.071 31.145-0.157 21.951-0.174 45.162-0.174 67.115 0 10.592 0.088 20.99 0.157 31.145 0.157 23.822 0 46.631-0.593 67.9-2.692v50.72h-265.205v-50.72zM843.298 112.427c-10.101 0-20.448-0.071-31.005-0.157-22.056-0.157-45.338-0.157-67.378 0-10.557 0.088-20.904 0.157-31.005 0.157-24.731 0-47.418-0.49-67.9-2.43-67.552-6.38-109.936-29.171-112.819-107.594h490.811c-2.883 78.423-45.267 101.195-112.819 107.592-20.467 1.942-43.173 2.432-67.885 2.432z" />
<glyph unicode="&#xe00c;" d="M927.092 522.849v56.783l-8.182 3.24c-2.586 1.015-59.042 22.844-137.066 26.444v-25.921c56.587-2.782 101.588-15.808 119.327-21.699v-526.4c-36.557 14.695-78.646 22.124-125.251 22.124-114.189 0-222.945-43.79-255.673-58.158v209.133l15.219-16.79v149.895h-38.979v-149.895l15.219 16.79v-209.395c-33.154 13.713-147.277 57.111-261.597 57.111-45.198 0-85.192-6.938-119.294-20.619v526.269c19.899 6.644 74.097 22.321 140.895 22.321 4.778 0 9.426-0.393 14.204-0.556v25.823c-4.778 0.131-9.426 0.556-14.204 0.556-89.053 0-155.786-25.921-158.535-27.001l-8.182-3.24v-52.594c-26.935-5.040-43.692-14.106-43.692-28.801 0-76.649 0-542.044 0-542.044h399.153c13.811-12.306 33.972-20.193 56.587-20.193s42.808 7.855 56.587 20.193h389.106c0 0 0 515.109 0 542.044 0 11.979-13.582 19.768-35.641 24.579zM802.005 769.98h-547.576v-34.528h53.576v-279.793h53.543v279.793h69.122v-279.793h53.511v279.793h89.839v-279.793h53.543v279.793h69.089v-279.793h53.511v279.793h51.841zM532.586 960l-305.714-174.016h606.224zM802.005 445.284h-542.339v-39.667h-19.015v-39.797h583.871v39.797h-22.517v19.833z" />
<glyph unicode="&#xe00d;" d="M748.308-23.355v-39.385h-472.615v39.385c0 21.701 17.684 39.385 39.385 39.385h79.281c2.087 49.152 33.989 90.191 78.257 105.905v461.785c-20.756 13.115-34.658 36.116-34.658 62.503h148.086c0-26.388-13.903-49.388-34.658-62.503v-461.745c44.268-15.714 76.17-56.753 78.257-105.905h79.281c21.701-0.039 39.385-17.723 39.385-39.424zM1024 331.146c-28.869-81.29-105.748-139.934-196.923-139.934s-168.054 58.683-196.923 139.934h45.45l133.041 352.61c5.75 15.36 31.074 15.36 36.864 0l133.041-352.61h45.45zM936.448 331.146l-109.371 289.831-109.371-289.871h218.742zM196.923 724.559c17.841 0 32.374 11.934 37.415 28.121 13.036 4.962 26.388 11.658 40.094 18.59 30.129 15.202 64.276 32.492 99.722 32.492 34.028 0 55.296-15.714 67.466-29.105-0.473-3.387-1.024-6.774-1.024-10.279 0-39.424 31.98-71.404 71.404-71.404s71.404 31.98 71.404 71.404c0 3.505-0.551 6.853-1.024 10.24 12.13 13.351 33.398 29.145 67.466 29.145 35.446 0 69.593-17.25 99.682-32.453 13.745-6.932 27.097-13.627 40.133-18.59 5.041-16.187 19.574-28.121 37.415-28.121 21.977 0 39.778 17.802 39.778 39.778s-17.802 39.778-39.778 39.778c-11.343 0-21.465-4.884-28.711-12.524-9.728 4.096-20.244 9.334-31.074 14.809-34.028 17.211-72.586 36.706-117.445 36.706-39.227 0-66.56-14.927-85.11-30.996-8.31 9.177-18.944 16.030-31.035 19.929 14.69 7.877 25.009 22.882 25.009 40.645 0 25.797-46.71 86.016-46.71 86.016s-46.71-60.219-46.71-86.016c0-17.802 10.319-32.768 25.009-40.645-12.091-3.86-22.725-10.752-31.035-19.929-18.55 16.069-45.883 30.996-85.11 30.996-44.859 0-83.456-19.495-117.484-36.706-10.831-5.514-21.307-10.752-31.035-14.809-7.247 7.601-17.369 12.524-28.711 12.524-21.977 0-39.778-17.802-39.778-39.778s17.802-39.818 39.778-39.818zM196.923 191.173c-91.175 0-168.054 58.683-196.923 139.934h45.45l133.041 352.61c5.75 15.36 31.074 15.36 36.864 0l133.041-352.61h45.45c-28.869-81.25-105.748-139.934-196.923-139.934zM306.294 331.146l-109.371 289.831-109.371-289.871h218.742z" />
<glyph unicode="&#xe00f;" d="M1014.345 640.398l-210.431-202.908-43.171 45.754 159.252 153.569c15.402 14.853 15.822 39.361 0.969 54.763l-142.171 147.434c-7.201 7.427-16.887 11.657-27.22 11.818-10.236 0.226-20.149-3.681-27.575-10.817l-125.51-120.989 108.977-112.852c8.912-9.332 8.202-24.702-1.13-33.775-6.555-6.264-16.145-8.234-24.282-5.586l-158.090 167.615 206.847 199.647c12.561 11.979 32.709 11.301 44.753-1.195l239.104-247.855c12.044-12.464 12.044-32.58-0.323-44.624zM299.97 38.842c-7.33-7.136-17.275-11.043-27.511-10.785-10.3 0.194-20.084 4.424-27.252 11.753l-142.171 147.499c-14.821 15.402-14.433 39.684 0.969 54.666l65.386-67.937c9.009-9.332 23.797-9.59 33.129-0.678s9.525 23.668 0.484 33.032l-65.29 68.034 17.404 16.823 65.386-67.937c8.944-9.267 23.733-9.59 33.129-0.678 9.299 9.073 9.525 23.765 0.484 33.161l-65.354 67.84 17.436 16.823 65.322-67.873c9.009-9.267 23.862-9.59 33.129-0.678 9.396 8.977 9.558 23.701 0.581 33.097l-65.386 67.873 17.404 16.823 65.386-67.808c8.977-9.396 23.765-9.687 33.129-0.678 3.455 3.358 5.715 7.556 6.619 11.883l-121.054 128.513-231.646-223.218c-12.399-12.044-12.399-32.225-0.42-44.657l239.104-248.016c12.012-12.464 32.225-13.142 44.624-1.033l228.191 219.957-43.139 45.754-178.077-171.555zM717.765 648.244c-30.158 31.159-29.254 81.079 2.002 111.141 31.095 30.126 80.982 29.222 111.044-1.97 30.158-31.224 29.093-81.144-2.002-111.141-31.030-30.126-80.918-29.222-111.044 1.97zM751.508 680.792c12.141-12.464 32.16-12.819 44.818-0.743 12.496 12.109 12.851 32.193 0.71 44.721-12.109 12.528-32.193 12.948-44.721 0.84s-12.916-32.193-0.807-44.818zM878.503 278.173l-205.782-193.899-458.609 486.604 205.846 193.899 458.545-486.604zM454.476 629.096c0.097 4.65-1.582 9.235-4.876 12.658l-22.409 23.701c-6.652 7.071-17.856 7.427-24.992 0.743l-12.141-11.398c-7.136-6.652-7.427-17.953-0.775-24.992l22.28-23.862c3.326-3.423 7.717-5.489 12.464-5.522 4.682-0.194 24.831 16.242 24.831 16.242 3.423 3.261 5.425 7.717 5.618 12.431zM773.045 272.651c7.201 6.716 7.459 17.953 0.71 25.057l-257.639 273.331c-3.229 3.487-7.62 5.489-12.399 5.586-4.617 0.161-9.235-1.614-12.625-4.779l-12.173-11.495c-7.136-6.684-7.459-17.856-0.743-24.992l257.606-273.364c3.358-3.423 7.685-5.489 12.496-5.618 4.714-0.161 9.267 1.614 12.722 4.843l12.044 11.431zM193.286 593.061l205.782 193.964-53.149 56.378-205.749-193.996 53.116-56.345zM48.434 746.856c-11.204 11.883-17.146 27.543-16.694 43.817 0.517 16.242 7.394 31.547 19.245 42.687l116.63 109.881c24.54 23.313 63.288 22.118 86.504-2.486l72.296-76.688-205.782-193.899-72.2 76.688zM85.148 789.059l37.779-40.168 124.735 117.534-37.876 40.104-124.638-117.47zM982.895 1.193c3.52-11.172 0.323-23.345-8.137-31.353-8.524-8.040-20.859-10.397-31.741-6.232l-244.239 93.188 205.556 193.964 78.561-249.566zM917.638 84.952l-30.901 98.128-119.504-112.723 96.158-36.681 54.247 51.276z" />
<glyph unicode="&#xe010;" d="M1019.399-0.87l-230.86 208.395c10.045 13.617 17.19 28.338 20.314 42.611l0.412 2.75c7.295 89.018 1.104 94.611-6.098 101.064l-486.617 439.386c-14.216 12.869-36.251 11.728-49.12-2.507l-18.088-20.015-45.173 40.777 8.773 9.745c29.704 32.903 35.839 70.781 14.497 90.028-21.324 19.229-58.36 9.297-88.064-23.606l-112.231-124.24c-29.704-32.903-35.783-70.762-14.515-90.010 21.361-19.248 58.398-9.334 88.102 23.569l8.773 9.708 45.173-40.796-18.107-20.033c-12.832-14.235-11.709-36.251 2.507-49.101l486.654-439.442c21.268-19.154 103.047 4.639 103.87 4.938 13.879 4.601 27.815 13.187 40.31 24.541l230.841-208.433c5.705-5.125 14.497-4.695 19.659 1.047 5.125 5.612 4.714 14.422-1.010 19.622zM771.236 256.346c-5.387-21.81-33.726-47.455-54.732-54.357-22.128-7.351-54.937-10.999-66.478-10.344l-477.788 431.493 18.069 19.996c12.832 14.235 11.728 36.288-2.507 49.157l-81.33 73.418-36.756-40.703c-11.429-12.645-22.184-17.676-27.759-19.079 0.804 5.705 4.732 16.91 16.161 29.573l112.231 124.278c11.41 12.682 22.166 17.714 27.759 19.079-0.786-5.668-4.714-16.891-16.161-29.573l-36.737-40.665 81.33-73.456c14.253-12.813 36.288-11.709 49.12 2.525l18.107 20.033 69.191-62.476c-0.655-0.505-1.328-0.804-1.889-1.459l-75.663-83.781c-5.144-5.668-4.695-14.459 1.010-19.622 5.686-5.144 14.497-4.695 19.659 0.991l75.644 83.8c0.542 0.636 0.767 1.365 1.197 2.058l19.678-17.751c-0.655-0.486-1.365-0.786-1.945-1.384l-56.995-63.149c-5.163-5.705-4.732-14.515 0.973-19.659 5.724-5.163 14.515-4.676 19.697 1.010l56.976 63.149c0.58 0.617 0.823 1.309 1.216 2.020l19.659-17.751c-0.617-0.468-1.347-0.767-1.889-1.384l-75.681-83.8c-5.125-5.686-4.695-14.478 1.010-19.622 5.686-5.181 14.515-4.732 19.659 0.991l75.644 83.762c0.58 0.655 0.804 1.384 1.216 2.076l19.678-17.733c-0.655-0.505-1.347-0.804-1.945-1.403l-23.643-26.187c-1.253-0.954-2.581-1.777-3.704-3.012l-61.073-67.152c-7.463-8.23-8.698-19.304-2.656-24.784l232.413-214.923c0.337-0.318 0.842-0.355 1.197-0.599l42.779-37.018c0 0 35.465 2.563 60.68 26.936 30.097 29.199 25.57 67.919 25.57 67.919l-41.862 39.356c-0.112 0.094-0.15 0.262-0.224 0.337l-9.558 8.698-212.753 196.873 13.449 14.889c0.561 0.636 0.804 1.328 1.216 2.039l268.794-242.719c8.361-25.888 8.885-38.234 0.748-70.912zM673.95 254.438c3.778-3.517 3.984-9.446 0.468-13.225-1.871-1.945-4.34-2.974-6.865-2.974-2.263 0-4.545 0.842-6.36 2.525l-215.466 200.352c-3.778 3.517-3.984 9.446-0.468 13.225 3.535 3.76 9.446 3.984 13.225 0.468l215.466-200.371z" />
<glyph unicode="&#xe011;" d="M536.037 284.748c11.597 0 21.085 9.488 21.085 21.085v9.805c0 11.597-9.488 21.085-21.085 21.085h-352.122c-11.597 0-21.085-9.488-21.085-21.085v-9.805c0-11.597 9.488-21.085 21.085-21.085h352.122zM757.115 719.419c-33.104 33.104-71.584 59.038-114.598 77.277l-0.211 0.105c-14.022 5.904-30.256 0.843-38.48-11.913l-24.458-38.059c-6.116 2.109-12.651 3.374-19.398 3.901-2.003 0.105-4.112 0.211-6.22 0.211-5.692 0-11.279-0.633-16.657-1.792l56.508 88.136c9.382 14.654 5.165 34.263-9.595 43.646l-115.23 74.114c-5.271 3.374-11.175 4.955-17.079 4.955-10.436 0-20.663-5.166-26.673-14.549l-200.414-312.482c-9.383-14.654-5.166-34.263 9.594-43.646l21.823-14.022-19.82-30.995-6.22-9.699c-9.383-14.653-5.166-34.263 9.594-43.645l18.766-12.019c14.654-9.383 34.263-5.166 43.646 9.594l6.22 9.699 19.819 30.995 21.507-13.812c5.271-3.373 11.175-4.954 17.078-4.954 10.437 0 20.664 5.165 26.674 14.549l82.232 128.303c1.687-7.591 4.427-14.76 8.223-21.401 3.268-5.798 7.169-11.175 11.702-15.919 15.181-16.025 36.794-25.935 60.726-25.197 42.276 1.265 76.643 35.634 77.804 77.91 0.316 10.332-1.371 20.242-4.639 29.414 22.034-12.019 42.487-27.305 60.726-45.544 50.183-50.183 77.804-116.812 77.804-187.764s-27.622-137.581-77.804-187.763c-31.207-31.206-68.738-53.662-109.749-66.207-3.056-0.949-6.219-1.371-9.382-1.371h-103.739c-17.501 0-31.628 14.126-31.628 31.628v7.064h-151.075v-142.324c3.268 0.211 6.642 0.317 9.909 0.317h453.541c36.056 6.431 63.572 37.953 63.572 75.907 0 23.403-10.436 44.384-26.884 58.511 20.242 25.512 37.005 53.556 49.761 83.707 18.766 44.49 28.36 91.72 28.36 140.323 0 48.601-9.488 95.831-28.36 140.322-18.239 42.906-44.173 81.492-77.277 114.49zM553.749 641.931c-13.388 0-24.564 9.067-27.831 21.507-0.634 2.319-0.949 4.85-0.949 7.38 0 14.232 10.332 26.040 23.932 28.36 1.581 0.316 3.268 0.422 4.955 0.422 15.919 0 28.781-12.862 28.781-28.781s-12.968-28.887-28.888-28.887zM745.518 157.499c-3.374-1.581-7.169-2.425-11.175-2.425-10.649 0-19.821 6.115-24.142 15.076-1.792 3.584-2.741 7.697-2.741 11.914 0 14.865 12.017 26.989 26.989 26.989 4.006 0 7.802-0.843 11.175-2.425 1.792-0.843 3.584-1.898 5.166-3.057 6.431-4.955 10.648-12.651 10.648-21.401-0.105-11.071-6.642-20.454-15.919-24.671zM284.491 68.836c-68.948-5.060-123.243-62.623-123.243-132.836h552.642c17.501 0 31.628 14.127 31.628 31.628v101.525h-451.117c-3.374 0-6.642-0.105-9.91-0.316z" />
<glyph unicode="&#xe012;" d="M617.94 730.971c47.347-29.686 80.548-79.921 86.592-138.233 19.309-9.022 40.74-14.211 63.462-14.211 82.95 0 150.182 67.232 150.182 150.169 0 82.95-67.232 150.182-150.182 150.182-82.158-0.026-148.801-66.056-150.054-147.907zM519.553 423.477c82.95 0 150.182 67.244 150.182 150.182s-67.244 150.169-150.182 150.169c-82.937 0-150.207-67.244-150.207-150.182s67.27-150.169 150.207-150.169zM583.257 413.24h-127.435c-106.029 0-192.289-86.273-192.289-192.302v-155.843l0.396-2.441 10.735-3.361c101.186-31.616 189.094-42.159 261.45-42.159 141.326 0 223.24 40.293 228.288 42.862l10.032 5.073h1.073v155.868c0.038 106.029-86.221 192.302-192.251 192.302zM831.724 568.278h-126.451c-1.367-50.593-22.964-96.151-57.123-128.917 94.247-28.025 163.204-115.422 163.204-218.653v-48.024c124.853 4.575 196.8 39.961 201.541 42.338l10.032 5.086h1.073v155.894c0 106.017-86.26 192.276-192.276 192.276zM256.032 578.502c29.379 0 56.714 8.575 79.87 23.182 7.361 48.012 33.098 89.966 69.864 118.54 0.153 2.811 0.422 5.597 0.422 8.434 0 82.95-67.244 150.182-150.156 150.182-82.963 0-150.182-67.232-150.182-150.182 0-82.912 67.219-150.156 150.182-150.156zM390.904 439.361c-33.993 32.6-55.513 77.915-57.085 128.201-4.69 0.345-9.329 0.716-14.108 0.716h-127.422c-106.029 0-192.289-86.26-192.289-192.276v-155.868l0.396-2.402 10.735-3.386c81.174-25.341 153.619-37.021 216.544-40.702v47.066c0.026 103.231 68.957 190.602 163.229 218.653z" />
<glyph unicode="&#xe013;" d="M985.529 104.167c-33.354 49.696-84.039 109.375-142.718 168.049-32.233 32.237-66.070 63.215-97.847 89.59-3.679 3.055-8.608 4.133-13.222 2.9-4.618-1.232-8.356-4.625-10.022-9.105-4.968-13.349-13.067-25.688-24.065-36.681-9.032-9.037-18.412-16.149-27.88-21.138-3.94-2.079-6.733-5.826-7.598-10.199-0.86-4.375 0.302-8.901 3.166-12.318 25.592-30.578 55.485-63.111 86.452-94.084 106.695-106.691 210.361-181.205 252.102-181.207 6.409 0 11.427 1.763 14.901 5.24 16.392 16.397-9.041 62.859-33.27 98.952zM553.417 408.512c2.628-16.644 5.608-35.51 15.273-56.327 13.145-28.307 35.367-45.207 59.439-45.212h0.005c18.192 0 36.506 9.096 54.444 27.029 25.42 25.42 33.075 58.744 20.477 89.143-16.71 40.348-64.4 66.419-121.49 66.419-12.566 0-25.695-1.21-39.023-3.597-5.217-0.935-9.534-4.598-11.3-9.597-1.77-4.997-0.719-10.562 2.746-14.572 13.467-15.571 16.229-33.043 19.429-53.286zM935.454 896.022h-920.702c-8.147 0-14.751-6.604-14.751-14.751v-625.154c0-8.147 6.604-14.751 14.751-14.751h631.377l-30.158 38.739c-61.043 0-79.23 58.846-84.559 58.846h-433.825v459.485h755.034v-459.485h-34.632l93.982-97.586h23.484c8.147 0 14.751 6.604 14.751 14.751v625.154c0 8.147-6.604 14.751-14.751 14.751zM509.839 507.43c2.769-2.583 6.377-3.965 10.063-3.965 1.368 0 2.744 0.188 4.090 0.579 9.3 2.685 23.001 6.577 35.492 9.888 3.032 0.803 5.726 2.553 7.7 4.99 3.445 4.262 7.48 8.742 10.435 12.014 14.704 16.324 34.845 38.678 25.98 65.264-4.568 13.315-13.664 23.15-26.312 28.443-6.69 2.8-13.95 4.16-22.204 4.16-28.559 0-64.538-17.289-102.631-35.592-16.991-8.163-44.070-21.172-59.87-25.758 3.735 9.441 11.109 22.61 16.297 31.886 9.007 16.083 18.321 32.716 23.107 48.943 10.426 35.346-5.814 54.317-16.515 62.55-0.016 0.011-0.193 0.145-0.209 0.159-9.6 7.201-20.291 10.852-31.774 10.852-32.852 0-65.961-29.121-92.566-52.521-10.898-9.586-19.372-16.846-25.311-21.119-4.741-3.411-7.024-9.298-5.819-15.012l5.96-28.311c0.953-4.528 3.974-8.345 8.156-10.31 4.192-1.97 9.057-1.859 13.149 0.295 12.756 6.713 26.001 18.367 41.349 31.867 12.57 11.057 25.572 22.49 37.493 30.283 5.027 3.286 8.792 5.208 11.501 6.332-3.395-10.167-12.636-26.666-18.019-36.284-9.146-16.344-18.605-33.247-23.055-49.444-10.483-38.147 11.679-56.053 21.61-61.928 7.333-4.41 15.577-6.552 25.202-6.552 25.334 0 57.094 15.26 93.873 32.929 18.323 8.803 37.273 17.906 53.236 23.781 1.237 0.456 2.446 0.887 3.631 1.296-11.252-12.514-24.535-27.873-28.393-45.836-1.098-5.070 0.558-10.342 4.353-13.88z" />
<glyph unicode="&#xe014;" d="M162.721 551.498c0 0-109.484-430.037-148.765-598.213l210.29 287.79c-19.092 42.469-7.58 106.898 25.821 143.417 44.842 48.986 124.679 48.986 173.701 4.144s52.387-120.925 7.545-169.911c-33.968-37.298-96.804-52.316-141.291-35.704l-262.712-247.021 554.186 214.611 222.687 333.659-291.473 272.913-349.988-205.686zM732.102 960l-159.958-148.517 286.479-276.101 151.386 157.018z" />
<glyph unicode="&#xe016;" d="M223.068 357.36c0-21.011-23.433-44.386-70.329-70.329-17.101-7.996-38.52-12.081-64.317-12.081-46.721 0-75.523 23.521-86.408 70.358l-2.014 24.104c0 33.793 9.367 75.99 28.132 126.592 0 0 2.189 68.549 144.685 114.54 5.924 2.656 14.912 4.698 32.334 8.025 6.187 0 13.92-18.064 13.92-18.064s-2.276-25.097-36.186-42.197l-84.395-44.211c-17.772-24.951-27.169-43.073-28.132-54.279v-3.998h6.041c44.182 17.422 70.329 26.118 78.383 26.118 16.079 0 24.104-6.012 24.104-18.093 0-19.085-54.25-46.166-54.25-46.166s-69.628-33.005-70.329-36.186c0 0-7.15-46.75 40.184-52.265h18.064c22.791 0 52.265 16.751 88.422 50.252 14.737-2.685 22.091-10.068 22.091-22.12zM422.002 448.992h-16.050c-45.057 0-152.739-26.147-152.739-42.139 7.033-22.762 15.058-34.143 24.104-34.143 24.134 9.309 159.918 34.143 174.83 54.22-3.181 14.737-13.219 22.062-30.145 22.062zM458.188 575.643c-29.503 0-217.056-44.357-217.056-54.22 0-11.556 7.383-20.982 22.149-28.132 60.582 12.081 215.014 44.853 215.014 56.292v12.052c-4.348 6.449-11.060 11.118-20.106 14.007zM707.637 513.105h-4.056c-16.546 0-42.022-24.805-76.34-74.356h-4.027c-6.683 24.601-10.039 42.693-10.039 54.22 0 18.91-12.753 32.305-38.229 40.213-6.041 0-14.037-4.027-24.134-12.081h-1.984c-6.566 7.587-19.26 12.898-38.199 16.109-9.397-6.245-14.066-14.941-14.037-26.147v-2.014c4.027-13.745 6.041-28.482 6.041-44.211v-16.079l4.027-94.433-4.027-22.062c5.515-22.791 16.225-34.201 32.159-34.201h16.050c9.367 7.004 14.037 14.358 14.037 22.12l-1.984 72.342c3.122 20.106 6.566 30.145 10.039 30.145 6.274 0 25.388-86.408 25.388-86.408 0-17.042 11.439-28.482 34.172-34.143 14.766 5.399 22.12 12.023 22.12 20.077 13.395 56.73 17.509 99.044 46.925 126.592 7.996 0 13.365-51.623 16.079-154.665 5.866-12.081 13.949-20.807 24.104-26.147 18.793 9.688 28.132 23.725 28.132 42.197v14.037c-5.34 89.881-12.782 142.846-22.091 158.692 0.058 10.739-13.336 20.865-40.125 30.203zM1004.973 360.133l-7.996-1.955c-109.199-50.164-142.7-38.287-142.7-38.287-14.037 0-23.433 9.397-28.102 28.161 0 23.783 7.354 42.518 22.062 56.292h4.056c4.698-4.056 12.782-6.041 24.104-6.041 10.71 6.683 16.109 17.451 16.109 32.188 0 12.373-4.698 30.028-30.145 34.143-25.447 4.144-56.263-14.066-56.263-14.007-24.104-31.108-36.186-57.897-36.186-80.397 0-28.569 6.683-50.718 20.077-66.273 21.945-21.39 46.049-32.188 72.342-32.188 13.074 0 29.795 3.327 50.222 10.039 69.745 19.64 104.53 42.343 104.53 68.374v1.955c0 2.159-4.056 4.844-12.111 7.996zM1023.942 609.786v6.362c0 2.422-1.838 5.486-5.486 9.105l-15.437 2.772c-9.572-1.255-15.116-2.451-16.459-3.648-23.083-11.118-34.668-21.741-34.668-31.954 0-6.362 4.873-10.622 14.591-12.782l21.011 16.4h4.552v-2.743c-20.106-42.635-37.47-74.852-52.003-96.709v-1.78c0-8.375 6.070-14.474 18.268-18.268 28.569 6.683 42.927 10.972 42.927 12.782 9.105 0 16.692 5.486 22.762 16.4 0 4.261-3.969 6.391-11.819 6.391h-6.449l-22.733-3.648h-0.905l-0.905 0.905c0 3.064 3.356 10.389 10.039 21.916 21.77 42.197 32.713 68.374 32.713 78.5z" />
<glyph unicode="&#xe017;" d="M727.686 772.585c-109.413-28.727-147.439-122.93-141.115-162.297 2.005 1.21 3.968 2.377 5.996 3.641 9.614 5.899 20.080 11.48 30.938 17.235 10.793 5.79 22.416 11.164 34.122 16.615 5.887 2.747 12.059 5.157 18.165 7.643l9.202 3.751c3.968 1.559 6.41 2.201 9.682 3.346l18.446 6.138c6.412 1.83 12.778 3.619 19.079 5.408 12.755 3.522 25.075 6.629 37.067 9.103 23.962 5.45 46.487 9.418 65.869 12.417 38.812 5.91 65.26 7.032 65.26 7.032s-6.039-2.595-16.637-7.118c-10.64-4.427-25.815-10.292-44.087-17.313-9.202-3.346-19.078-6.987-29.543-10.824-10.486-3.729-21.565-7.631-32.989-11.676-11.317-3.99-22.937-8.154-34.82-12.395-11.622-3.925-23.746-8.569-35.911-13.235-11.338-4.241-23.113-9.889-34.667-14.467-11.469-5.221-31.136-12.059-42.256-16.811-13.411-5.626-21.893-8.668-30.417-13.181-95.446-55.698-137.735-154.296-163.529-258.628-4.578 98.010-25.141 193.097-95.894 263.229 0.065 0.043 0.162 0.065 0.23 0.12-9.583 8.972-19.537 18.62-29.784 28.955-8.416 8.677-17.311 17.302-25.968 26.502-8.884 8.657-17.617 18.347-26.524 26.612-9.495 8.972-18.87 17.856-28.137 25.968-9.355 8.395-18.501 16.68-27.419 24.715-9.037 8.1-17.771 15.916-26.033 23.374-8.188 7.546-16.004 14.697-23.144 21.303-14.227 13.42-26.055 24.67-34.167 32.826-8.037 8.231-12.615 12.94-12.615 12.94s23.985-11.142 57.608-31.409c16.766-10.182 36.053-22.437 56.155-36.62 10.128-6.901 20.332-14.467 30.765-22.567 5.135-4.087 10.356-8.154 15.535-12.264l14.718-12.722c2.584-2.323 4.601-3.815 7.654-6.791l7.109-6.989c4.732-4.644 9.486-9.245 13.857-13.999 8.819-9.486 17.442-18.915 25.238-28.378 7.827-9.463 15.362-18.62 21.989-27.736 1.406-1.962 2.726-3.749 4.132-5.647 20.921 33.959 21.738 135.556-68.453 203.901-98.215 74.352-235.078 40.992-292.389 68.498 57.868-88.524 46.758-147.624 143.972-244.771 64.965-64.997 125.635-69.021 166.506-57.715 83.128-80.021 96.101-202.013 96.144-318.753-8.503 6.89-18.839 12.298-30.765 12.298-33.644 0-58.142-18.924-69.883-45.919-74.057 25.206-123.245-33.381-127.508-82.724-35.235 13.104-79.935-27.428-79.935-62.644 0-34.777 27.484-62.924 61.912-64.386l545.131-0.96c0 0 58.084 31.312 58.084 65.368 0 35.692-28.933 64.672-64.625 64.672-4.95 0-9.684-0.654-14.26-1.699 0.304 2.506-6.237 112.268-101.608 68.18-7.413 34.342-17.138 60.112-74.438 60.112-28.225 0-47.338-10.247-59.569-20.668 23.865 121.406 60.747 248.238 168.24 310.978 1.178 0.665 1.789 1.559 2.616 2.366 33.229-26.655 91.316-47.249 177.528-11.446 126.899 52.71 139.175 111.56 226.455 171.271-63.404-3.557-177.177 79.505-296.312 48.238zM430.606 230.746l3.565 3.576c-1.798-2.792-2.9-4.819-2.9-4.819s-0.36 0.698-0.665 1.244z" />
<glyph unicode="&#xe018;" d="M400.057 845.853c0 66.628 47.519 114.147 108.318 114.147 56.438 0 103.958-47.519 103.958-114.147 0-50.609-47.519-98.128-103.958-98.128-60.798 0-108.318 47.519-108.318 98.128zM552.969 613.363h28.469c9.169 0 17.178-5.258 20.934-13.259 56.514-21.726 69.896-90.927 72.574-134.329h61.756c-26.885 124.916-97.345 226.62-198.331 259.907l-28.445-28.625-27.563 28.935c-0.106-0.024-0.18-0.024-0.286-0.049-14.108-3.38-162.489-69.136-194.779-260.16h91.025c4.637 19.342 9.561 36.315 14.778 51.069v-51.069h245.284c0.661 28.437-9.61 55.494-11.357 59.862 0.351-0.939-14.304 33.54-38.144 42.618-2.409-0.849-4.907-1.265-7.446-1.265h-28.469c-12.777 0-23.195 10.401-23.195 23.187 0.008 12.777 10.401 23.179 23.195 23.179zM537.734 508.809l-27.539-37.671h-0.531l-27.514 37.671 27.514 184.010h0.531l27.539-184.010zM240.737 453.691h542.519v-59.086h-538.853zM322.92-64h378.169l37.524 445.174h-453.216z" />
<glyph unicode="&#xe019;" d="M500.467 548.464l382.643 62.059v-518.788c0-42.939-31.993-77.233-81.931-89.871-54.871-13.577-107.77 9.396-118.34 51.442-10.523 42.14 25.416 87.287 80.24 101.005 24.758 6.107 49.187 4.839 69.576-2.349v312.598l-280.417-51.301-1.315-388.798c-0.235-36.785-33.496-73.005-81.227-84.797-54.167-13.577-111.011 12.215-117.072 50.784-10.382 41.623 25.087 86.3 79.441 99.924 24.429 6.107 48.341 4.886 68.401-2.161v460.253zM356.617 358.2l1.362 480.548c0 0 104.669 5.59 207.036-154.937 0 0 0.282 82.871-78.408 143.521-153.668 107.3-153.245 132.669-153.245 132.669-29.315-3.429-32.322-25.697-32.322-25.697v-506.010c-21.986 7.705-48.294 9.067-75.26 2.349-59.663-14.751-98.656-64.032-87.24-109.837 6.718-42.328 69.106-70.75 128.722-55.764 52.382 13.060 88.978 52.616 89.26 93.159h0.094zM634.92 668.731c18.228 4.557 30.959 18.322 31.053 32.415h0.047l0.47 167.198c0 0 36.409 1.926 72.019-53.932 0 0 0.047 28.845-27.342 49.892-53.462 37.348-53.274 46.18-53.274 46.18-10.194-1.174-11.275-8.926-11.275-8.926v-176.077c-7.611 2.725-16.725 3.195-26.12 0.893-20.812-5.121-34.295-22.315-30.348-38.241 2.349-14.751 24.053-24.617 44.771-19.402zM815.32 668.308c12.684 3.148 21.516 12.778 21.61 22.597l0.329 116.461c0 0 25.369 1.362 50.174-37.536 0 0 0.047 20.107-18.979 34.764-37.254 26.026-37.16 32.181-37.16 32.181-7.094-0.846-7.845-6.248-7.845-6.248v-122.662c-5.309 1.879-11.698 2.208-18.228 0.564-14.47-3.57-23.912-15.503-21.141-26.59 1.597-10.288 16.725-17.194 31.241-13.53z" />
<glyph unicode="&#xe01a;" d="M451.318 566.763c-32.012 11.498-67.321-5.158-78.805-37.188l-36.87-102.769-3.696 63.33 116.575 323.803c7.824 21.614-1.564 46.158-22.596 56.773-22.731 11.482-50.448 2.362-61.93-20.368l-163.465-323.566c-3.498-6.99-5.559-15.107-5.559-23.463l0.865-243.483-150.218-78.869c-41.668-21.88-57.709-73.377-35.843-115.026 21.897-41.666 73.377-57.706 115.043-35.826l284.003 149.122c18.603 9.918 32.611 28.036 36.438 50.45l45.99 268.707c4.96 28.924-11.347 58.124-39.932 68.373zM978.383 180.965l-150.218 78.869 0.865 243.483c0 8.356-2.061 16.473-5.559 23.463l-163.463 323.566c-11.482 22.731-39.202 31.848-61.93 20.368-21.032-10.615-30.417-35.157-22.596-56.773l116.575-323.803-3.693-63.33-36.87 102.769c-11.484 32.029-46.792 48.687-78.805 37.188-28.587-10.251-44.894-39.451-39.936-68.373l45.992-268.707c3.827-22.415 17.835-40.535 36.438-50.45l6.36-3.33 277.643-145.793c41.666-21.88 93.146-5.84 115.043 35.826 21.861 41.647 5.821 93.144-35.845 115.026z" />
<glyph unicode="&#xe01b;" d="M512 960c-281.6 0-512-230.4-512-512s230.4-512 512-512c281.6 0 512 230.4 512 512s-230.4 512-512 512zM858.155 177.493l-9.088 61.44-157.867-34.133-85.333-140.8 58.283-27.904c-47.445-17.493-98.517-27.563-152.149-27.563-53.589 0-104.704 9.941-152.149 27.563l58.283 27.904-85.333 140.8-157.867 34.133-9.088-61.44c-58.283 74.539-93.312 168.277-93.312 270.507 0 4.821 0.555 9.515 0.725 14.251l41.941-44.117 110.933 123.733-17.067 162.133-62.507-11.563c57.387 85.803 144.341 149.76 246.315 178.304l-30.208-55.808 149.333-64 149.333 64-30.251 55.808c102.016-28.544 189.013-92.501 246.315-178.347l-62.464 11.605-17.067-162.133 110.933-123.733 41.941 44.16c0.128-4.779 0.725-9.472 0.725-14.293 0-102.229-35.029-195.968-93.312-270.507zM512 618.667l179.2-132.267-68.267-209.067h-221.867l-68.267 209.067 179.2 132.267z" />
<glyph unicode="&#xe01c;" d="M914.707 946.442l-131.096-45.056 9.66-28.013-393.944-135.443 16.56-48.23-349.82-120.229 17.905-52.094-83.971-28.841 21.079-61.27 83.936 28.876 17.905-52.094 349.855 120.367 16.56-48.23 393.944 135.409 9.591-28.013 131.131 45.056zM622.811 352.231v77.795h-61.926c-7.383 10.212-19.181 17.974-33.016 22.252v1.173l-0.724-0.966c-6.727 2.104-13.8 3.519-21.458 3.519-23.735 0-44.124-10.522-55.267-25.909h-61.926v-77.795h62.271l-306.731-402.742h62.823l276.579 363.171v-361.998h44.4v361.998l276.579-363.171h78.589l-320.703 402.707 60.511-0.034z" />
<glyph unicode="&#xe01d;" d="M937.475 206.223c-12.219 21.615-40.761 72.414-70.169 115.741-7.536 11.096-15.041 21.423-22.193 31.204h-462.804c-7.184-9.781-14.624-20.108-22.16-31.204-29.472-43.359-58.015-94.158-70.169-115.741l-3.271-5.837c-12.539-22.128-12.7-52.338-0.385-73.473 9.364-15.971 24.277-24.822 42.108-24.822h570.528c17.799 0 32.744 8.851 42.14 24.822 12.219 21.134 12.090 51.344-0.513 73.473l-3.111 5.837zM1007.837 211.29l-5.548 9.749c-20.749 36.913-69.239 123.31-119.365 197.007-16.773 24.694-33.706 47.785-49.003 68.662-24.534 33.417-55.032 74.948-55.353 87.295 1.892 54.166 0.609 182.319 0.192 221.893h31.942v56.123h-404.469v-56.155h42.429c-0.513-39.575-1.732-167.695 0.16-221.829-0.353-12.379-30.819-53.91-55.353-87.359-15.33-20.878-32.231-43.968-49.003-68.662-50.126-73.697-98.616-160.030-119.365-197.007l-5.548-9.781c-21.327-37.65-21.551-89.059-0.673-124.977 15.907-27.228 41.403-42.236 71.677-42.236h646.31c30.178 0 55.674 15.041 71.516 42.236 21.006 35.951 20.781 87.391-0.545 125.042zM968.294 109.692c-7.376-12.7-18.023-19.242-31.493-19.242h-646.214c-13.437 0-24.085 6.478-31.461 19.242-12.636 21.551-12.219 55.449 0.93 78.668l5.58 10.006c20.397 36.368 68.245 121.514 117.281 193.543 16.42 24.245 33 46.822 48.073 67.379 42.814 58.4 65.134 90.053 64.333 116.286-1.7 48.201-0.834 160.319-0.289 208.713h237.383c0.513-48.426 1.443-160.511-0.257-208.713-0.898-26.265 21.455-57.887 64.269-116.286 15.041-20.557 31.621-43.134 48.105-67.379 48.971-72.030 96.852-157.176 117.248-193.543l5.548-10.006c13.181-23.187 13.566-57.117 0.962-78.668zM363.611 793.492v4.714h-363.611v-98.231h50.992v-517.195c0-34.636 27.163-133.54 147.715-133.54 4.49 0 8.434 0.673 12.732 0.962-14.175 7.12-26.265 18.408-35.245 33.738-2.918 5.067-5.324 10.519-7.44 16.099-67.957 15.362-70.266 82.035-70.266 82.773v517.131h183.922v-313.486c6.382 9.846 12.828 19.627 19.37 29.184 9.461 13.951 18.921 27.228 28.158 40.024v244.278h51.056v93.549h-17.382zM138.062 179.861c0-6.061 3.688-28.158 23.091-40.729-1.058 24.117 4.041 49.003 15.811 69.785l5.484 9.749c12.251 21.776 34.283 60.901 60.484 104.42 0 62.825 0 122.572 0 122.572h-104.869c0 0 0-257.235 0-265.797z" />
<glyph unicode="&#xe01e;" d="M964.105 97.642l-329.992 330.005c-3.091 3.103-6.396 5.856-9.799 8.432l58.446 61.542c2.988 3.010 5.815 6.175 8.417 9.429 77.592-29.268 168.639-12.815 231.006 49.544 45.491 45.505 68.431 108.429 62.879 172.648-0.602 7.267-5.416 13.55-12.262 16.031-6.861 2.506-14.549 0.797-19.712-4.347l-105.76-105.753-107.078 26.992-30.367 110.457 105.734 105.741c5.188 5.171 6.885 12.866 4.385 19.719-2.489 6.872-8.77 11.646-16.058 12.286-64.212 5.535-127.14-17.393-172.648-62.899-62.314-62.314-78.81-153.312-49.574-230.873-3.18-2.689-6.345-5.548-9.448-8.606l-86.022-82.617-157.967 157.952c-1.972 1.979-4.077 3.72-6.245 5.354 1.853 3.252 3.656 6.6 5.339 10.075 33.362-6.421 94.352 58.546 146.151 110.325l-150.904 150.921c-67.479-67.49-116.753-112.783-110.357-146.145-15.427-7.537-29.179-16.753-38.952-26.539l-21.257-21.251c-13.801-13.82-22.125-31.007-25.096-48.917-2.062-2.355-4.16-4.836-6.245-7.488l-7.922-9.956c-0.221-0.244-0.903-1.224-1.093-1.475l-7.18-10.052c-4.491-5.992-8.417-12.5-12.213-18.781-1.401-2.332-2.827-4.668-4.283-6.997-0.232-0.402-0.459-0.797-0.665-1.195l-3.19-6.011c-3.856-7.231-7.858-14.717-11.282-22.954l-0.553-1.311c-4.039-9.593-8.224-19.525-11.144-30.053l-1.413-4.555c-1.156-3.745-2.332-7.482-3.411-11.948l-2.933-14.524c-2.187-9.082-2.923-18.041-3.562-25.976l-0.427-5.214c-1.080-8.228-0.765-15.986-0.472-22.832 0.1-2.293 0.189-4.542 0.257-7.575 0.077-1.263 0.089-2.493 0.128-3.707 0.074-3.059 0.157-6.534 0.748-10.188l1.841-11.786c0.395-2.279 0.729-4.491 1.044-6.613 0.704-4.787 1.426-9.737 2.852-14.437l7.72-26.786c2.381-8.141 10.113-13.531 18.575-12.94 4.478 0.312 8.504 2.249 11.501 5.252 2.676 2.676 4.529 6.194 5.095 10.162l4.002 27.232c0.295 2.162 1.224 5.327 2.185 8.676 0.684 2.323 1.35 4.693 1.864 6.715l2.846 10.164c0.346 1.375 1.018 2.714 1.609 4.090 0.565 1.275 1.131 2.589 1.635 3.883 0.954 2.162 1.853 4.321 2.738 6.538 1.754 4.347 3.411 8.436 5.943 12.451 1.101 1.853 2.123 3.694 3.167 5.573 2.638 4.723 5.144 9.182 8.122 12.879 0.187 0.219 0.357 0.463 0.553 0.723l6.715 9.259c1.375 1.741 2.92 3.386 4.423 5.044 1.067 1.169 2.136 2.344 3.486 3.89 3.964 4.768 8.619 8.925 13.11 13.017l2.406 2.162c3.329 3.091 7.18 5.998 11.231 9.072 1.658 1.239 3.28 2.47 4.874 3.681 2.047 1.326 4.028 2.651 5.979 3.964 3.656 2.47 6.821 4.606 10.479 6.508l7.96 4.529 8.054 3.949c2.808 1.452 5.573 2.57 8.122 3.599 1.513 0.629 3.010 1.239 4.398 1.841 1.413 0.489 2.776 1.018 4.064 1.494 1.726 0.629 3.216 1.233 5.239 1.76l2.172 0.489c2.368-3.832 5.144-7.475 8.474-10.804l156.258-156.264-333.576-320.402c-0.132-0.125-0.257-0.264-0.378-0.378-41.509-41.509-48.269-102.304-6.753-143.826 41.516-41.509 98.446-30.867 139.945 10.628 0.183 0.176 0.34 0.34 0.502 0.529l294.275 309.863c1.726-2.034 3.435-4.081 5.352-6.002l329.967-329.994c36.976-36.986 96.952-36.986 133.927 0 36.965 36.963 36.965 96.941 0.002 133.902zM157.015 23.57c-15.285-15.302-40.077-15.302-55.374 0-15.283 15.289-15.283 40.066 0 55.355 15.283 15.278 40.077 15.289 55.374 0 15.27-15.291 15.27-40.066 0-55.355z" />
<glyph unicode="&#xe01f;" d="M1021.053 711.108c-0.785 9.115-6.789 16.946-15.367 20.069-8.599 3.142-18.225 1.003-24.693-5.455l-132.357-132.348-146.729 46.459-46.459 146.727 132.359 132.359c6.478 6.471 8.59 16.099 5.47 24.683-3.152 8.601-10.964 14.592-20.098 15.382-80.383 6.926-159.144-21.774-216.088-78.727-77.99-77.997-98.644-191.894-62.071-288.978-3.997-3.368-7.942-6.936-11.832-10.784l-441.812-416.899c-0.156-0.152-0.309-0.318-0.478-0.467-51.959-51.961-51.959-136.506 0-188.475 51.967-51.957 135.893-51.325 187.843 0.636 0.224 0.209 0.429 0.418 0.634 0.651l413.262 445.253c3.767 3.784 7.265 7.743 10.562 11.807 97.109-36.639 211.079-16.035 289.138 62.013 56.932 56.957 85.65 135.724 78.716 216.097zM162.162 30.783c-19.147-19.142-50.155-19.129-69.3 0-19.138 19.125-19.138 50.16 0 69.291 19.144 19.129 50.153 19.129 69.3 0 19.138-19.132 19.138-50.166 0-69.291z" />
</font>
</defs>
</svg>
